<?xml version="1.0" standalone="no"?><!DOCTYPE svg PUBLIC "-//W3C//DTD SVG 1.1//EN" "http://www.w3.org/Graphics/SVG/1.1/DTD/svg11.dtd"><svg t="1722234000556" class="icon" viewBox="0 0 1024 1024" version="1.1" xmlns="http://www.w3.org/2000/svg" p-id="4648" width="48" height="48" xmlns:xlink="http://www.w3.org/1999/xlink"><path d="M907.34327507 589.12402345c-0.32984734 7.54709243-10.31641961 15.98484993-30.81716538 26.69677733C834.33886719 637.80470085 615.62304688 727.74951172 569.08599091 752.00758171c-46.57104492 24.25729751-72.41114617 24.02709961-109.19337273 6.42700196-36.78222656-17.56765366-269.47291374-111.59963607-311.39674186-131.60522461C127.56640625 616.80957031 116.88769531 608.37181282 116.52540398 600.39599609v79.95901109c0 7.97581673 11.00778579 16.44601822 31.96969985 26.46503447 41.92382813 20.03957749 274.64773178 114.03834343 311.39674187 131.60599709 36.78222656 17.60009766 62.62232781 17.83029556 109.19337273-6.46021843 46.53782844-24.25806999 265.22043228-114.16966438 307.44089126-136.18678093 21.45629883-11.1730957 30.98170281-19.87426758 30.98170281-27.75120735V589.18968391l-0.16453743-0.06566046z" fill="#1890ff" p-id="4649"></path><path d="M907.31005859 458.77098274c-0.32984734 7.54786492-10.31641961 15.95240593-30.78317641 26.66433335-42.18801499 21.98312759-260.9038353 111.92871094-307.44166375 136.18600845-46.57104492 24.25806999-72.41114617 24.02709961-109.19337273 6.46021843-36.78222656-17.56688118-269.47291374-111.59963607-311.39674187-131.63766861C127.56640625 486.45575714 116.88769531 477.98555564 116.52540398 470.04218292v79.95901109c0 7.97581673 11.00778579 16.41357422 31.96969985 26.43259047 41.92382813 20.03957749 274.61451531 114.03834343 311.39674187 131.60522462 36.78222656 17.60009766 62.62232781 17.83106804 109.19337273-6.42700196 46.53782844-24.25729751 265.22043228-114.20288086 307.44089126-136.18600846 21.45629883-11.20631218 30.98170281-19.90748406 30.98170281-27.78442382V458.80419922l-0.19775391-0.03321648z" fill="#1890ff" p-id="4650"></path><path d="M907.31005859 323.57374382c0.39550781-8.04224967-10.1186657-15.09572983-31.27756118-22.87379265-41.13358498-15.06251335-258.49757195-101.57984734-300.12476921-116.83934211-41.62719727-15.22705078-58.56837273-14.60134507-107.44680405 2.96630859C419.48438835 204.32813835 188.04665757 295.12962532 146.88140106 311.21412468 126.28100586 319.32126236 116.22877312 326.80346679 116.55784798 334.77851104v79.99145509c0 7.97658921 11.00855828 16.41357422 31.97047233 26.43336295 41.92382813 20.03880501 274.61451531 114.07155991 311.39674187 131.63766862 36.78222656 17.56765366 62.62155532 17.79785156 109.19260025-6.45944596 46.53860092-24.25806999 265.22120476-114.20288086 307.44166374-136.18678092 21.45629883-11.2055397 30.98170281-19.90671157 30.98170281-27.78442383V323.57374382h-0.26418686zM399.7746582 399.28027344l183.2854271-28.14671517-55.37109375 81.17797852-127.88111687-53.03126335z m405.39550782-73.10328484l-108.40158463 42.84693718-11.7671299 4.61400032-108.33592415-42.8461647 120.0366211-47.4609375 108.4348011 42.8461647zM486.9176979 247.63624382l-17.7314186-32.69582749 55.30543327 21.62160874 52.1405983-17.07326889-14.10618782 33.78347397 53.1301403 19.90671157-68.52172851 7.11914063L531.77539063 317.21240234l-24.78489876-41.16525649-79.1015625-7.11991311 59.02954101-21.29098892z m-136.54829978 46.14232063c54.11813735 0 97.95384407 16.97361946 97.95384407 37.93630601s-43.83570671 37.96797751-97.95384407 37.96797751-97.98706055-17.03927993-97.98706055-37.96875c0-20.96191406 43.86815071-37.96875001 97.98706055-37.96875z" fill="#1890ff" p-id="4651"></path></svg>